<svg xmlns="http://www.w3.org/2000/svg" width="48" height="48" viewBox="0 0 48 48">
  <rect width="48" height="48" rx="8" fill="#333" />
  <path d="M24 12C17.37 12 12 17.37 12 24C12 29.59 15.6 34.25 20.5 35.88C20.8 35.94 21 35.72 21 35.53V32.35C17.9 33.08 17.5 31.05 17.5 31.05C17.1 29.7 16.5 29.42 16.5 29.42C15.64 28.84 16.56 28.86 16.56 28.86C17.51 28.93 17.95 29.81 17.95 29.81C18.76 31.27 20.1 30.91 20.5 30.71C20.56 30.11 20.8 29.7 21.1 29.45C18.5 29.2 15.7 28.27 15.7 24.26C15.7 23.04 16.1 21.98 16.8 21.15C16.72 20.88 16.4 19.72 16.88 18.09C16.88 18.09 17.72 17.89 20.5 19.47C21.3 19.25 22.15 19.14 23 19.13C23.85 19.14 24.7 19.25 25.5 19.47C28.28 17.89 29.12 18.09 29.12 18.09C29.6 19.72 29.28 20.88 29.2 21.15C29.9 21.98 30.3 23.04 30.3 24.26C30.3 28.28 27.49 29.19 24.88 29.43C25.26 29.75 25.6 30.4 25.6 31.35V35.53C25.6 35.72 25.8 35.94 26.1 35.88C31.4 34.25 35 29.59 35 24C35 17.37 29.63 12 24 12Z" fill="white" />
</svg>