<svg xmlns="http://www.w3.org/2000/svg" width="48" height="48" viewBox="0 0 48 48">
  <rect width="48" height="48" rx="8" fill="#25D366" />
  <path d="M24 12C17.92 12 12.9 17.02 12.9 23.1C12.9 25.3 13.54 27.36 14.7 29.02L12.9 35L18.3 33.27C20 34.3 21.96 34.9 24 34.9C30.08 34.9 35.1 29.88 35.1 23.8C35.1 17.72 30.08 12 24 12M24 33C22.2 33 20.46 32.46 19.02 31.54L18.7 31.35L15.1 32.2L15.98 28.8L15.76 28.46C14.7 27 14 25.12 14 23.1C14 18.07 18.07 14 23.1 14C27.92 14 31.98 18.07 31.98 23.1C31.98 28.13 27.92 33 24 33M27.54 25.6C27.3 25.5 26.1 24.92 25.88 24.82C25.66 24.7 25.5 24.78 25.34 24.96C25.18 25.14 24.78 25.62 24.64 25.8C24.5 25.98 24.36 26 24.14 25.86C23.92 25.72 23.22 25.46 22.42 24.78C21.78 24.26 21.32 23.6 21.18 23.42C21.04 23.24 21.16 23.12 21.3 23C21.42 22.88 21.56 22.68 21.7 22.54C21.84 22.4 21.92 22.32 22.04 22.14C22.16 21.96 22.1 21.82 22.02 21.68C21.94 21.54 21.54 20.48 21.34 20.08C21.16 19.7 20.96 19.76 20.82 19.76C20.7 19.76 20.56 19.74 20.42 19.74C20.3 19.74 20.1 19.82 19.92 20C19.74 20.18 19.26 20.76 19.26 21.82C19.26 22.88 19.96 23.9 20.1 24.08C20.24 24.26 21.32 25.98 23.08 26.82C23.52 27.04 23.88 27.16 24.16 27.26C24.6 27.42 25 27.4 25.32 27.32C25.66 27.24 26.38 26.88 26.58 26.48C26.78 26.08 26.78 25.74 26.7 25.66C26.62 25.56 26.48 25.54 26.28 25.42C26.08 25.3 25.54 25.6 27.54 25.6Z" fill="white" />
</svg>